<?xml version="1.0" standalone="no"?>
<!DOCTYPE svg PUBLIC "-//W3C//DTD SVG 20010904//EN"
 "http://www.w3.org/TR/2001/REC-SVG-20010904/DTD/svg10.dtd">
<svg version="1.0" xmlns="http://www.w3.org/2000/svg"
 width="1653.000000pt" height="1653.000000pt" viewBox="0 0 1653.000000 1653.000000"
 preserveAspectRatio="xMidYMid meet">

<g transform="translate(0.000000,1653.000000) scale(0.100000,-0.100000)"
fill="#000000" stroke="none">
<path d="M6166 11513 c19 -194 27 -501 31 -1250 l5 -863 99 0 99 0 0 713 c0
482 5 809 15 1012 8 165 15 330 15 368 l0 67 -135 0 -134 0 5 -47z"/>
<path d="M6900 11538 c1 -13 8 -129 16 -258 10 -160 17 -498 21 -1057 l6 -823
92 0 93 0 5 778 c3 427 10 858 16 957 5 99 13 235 16 303 l6 122 -136 0 c-133
0 -135 0 -135 -22z"/>
<path d="M10250 11553 c1 -5 8 -107 16 -228 11 -160 17 -452 21 -1072 l5 -853
93 0 93 0 5 763 c4 496 11 856 21 1032 8 149 15 291 16 318 l0 47 -135 0 c-74
0 -135 -3 -135 -7z"/>
<path d="M5010 8505 c0 -24 2 -25 65 -25 l65 0 0 -105 c0 -93 -2 -107 -21
-126 -23 -23 -60 -20 -90 7 -15 14 -19 13 -33 -8 -16 -22 -15 -24 10 -45 56
-45 141 -35 174 20 17 28 20 51 20 170 l0 137 -95 0 c-95 0 -95 0 -95 -25z"/>
<path d="M5610 8407 c0 -139 13 -178 69 -211 42 -24 125 -26 169 -2 61 32 72
65 72 209 l0 127 -30 0 -30 0 0 -115 c0 -157 -15 -184 -103 -185 -18 0 -39 11
-58 29 -29 29 -29 30 -29 150 l0 121 -30 0 -30 0 0 -123z"/>
<path d="M6340 8355 l0 -175 30 0 30 0 1 128 1 127 54 -112 c39 -81 59 -113
72 -113 12 0 34 33 74 113 l57 112 0 -127 1 -128 30 0 30 0 0 175 0 175 -38 0
-38 0 -54 -110 c-30 -60 -57 -110 -60 -110 -3 0 -30 50 -60 110 l-54 110 -38
0 -38 0 0 -175z"/>
<path d="M7202 8413 c-28 -65 -62 -144 -76 -175 l-26 -58 30 0 c24 0 33 7 50
40 l20 40 89 0 88 0 16 -40 c13 -35 20 -40 46 -40 17 0 31 2 31 3 0 2 -33 80
-74 173 -73 169 -73 169 -108 172 l-34 3 -52 -118z m121 -31 c15 -35 27 -65
27 -68 0 -2 -29 -4 -65 -4 -36 0 -65 2 -65 4 0 2 11 28 23 57 13 30 27 63 31
73 9 25 17 15 49 -62z"/>
<path d="M8320 8355 l0 -175 30 0 30 0 0 70 0 70 95 0 95 0 0 -70 0 -70 30 0
30 0 0 175 0 175 -30 0 -30 0 0 -75 0 -75 -95 0 -95 0 0 75 0 75 -30 0 -30 0
0 -175z"/>
<path d="M9112 8413 c-28 -65 -62 -144 -76 -175 l-26 -58 30 0 c24 0 33 7 50
40 l20 40 89 0 88 0 16 -40 c13 -35 20 -40 46 -40 17 0 31 2 31 3 0 2 -33 80
-74 173 -73 169 -73 169 -108 172 l-34 3 -52 -118z m121 -31 c15 -35 27 -65
27 -68 0 -2 -29 -4 -65 -4 -36 0 -65 2 -65 4 0 2 11 28 23 57 13 30 27 63 31
73 9 25 17 15 49 -62z"/>
<path d="M9760 8356 l0 -176 30 0 c29 0 30 1 30 50 l0 50 54 0 54 0 31 -50
c26 -42 36 -50 61 -50 16 0 30 2 30 5 0 3 -15 28 -34 56 l-33 50 33 33 c30 30
34 40 34 85 0 42 -5 56 -29 83 l-29 33 -116 3 -116 4 0 -176z m215 99 c14 -13
25 -33 25 -45 0 -11 -11 -32 -25 -45 -21 -22 -33 -25 -90 -25 l-65 0 0 70 0
70 65 0 c57 0 69 -3 90 -25z"/>
<path d="M10460 8408 c0 -141 13 -179 70 -212 75 -44 187 -17 222 54 14 28 18
61 18 158 l0 122 -30 0 -30 0 0 -115 c0 -63 -5 -125 -11 -138 -28 -62 -140
-62 -168 0 -6 13 -11 75 -11 138 l0 115 -30 0 -30 0 0 -122z"/>
<path d="M11190 8355 l0 -175 30 0 30 0 0 126 0 126 93 -126 c85 -115 95 -125
125 -126 l32 0 0 175 0 175 -30 0 -30 0 0 -127 0 -128 -92 127 c-86 117 -96
127 -125 128 l-33 0 0 -175z"/>
<path d="M6200 6111 c0 -795 -4 -1318 -10 -1398 -28 -332 -89 -534 -216 -702
-52 -70 -187 -187 -283 -246 -33 -21 -61 -43 -61 -50 0 -7 8 -23 18 -34 l17
-22 109 65 c386 232 537 464 603 925 14 102 17 276 20 1424 l4 1307 -100 0
-101 0 0 -1269z"/>
<path d="M6937 6643 c-4 -473 -12 -828 -21 -988 -9 -137 -16 -260 -16 -272 0
-23 2 -23 135 -23 122 0 135 2 135 18 -1 9 -8 148 -16 307 -10 176 -18 566
-21 993 l-5 702 -93 0 -92 0 -6 -737z"/>
<path d="M10287 6608 c-4 -538 -10 -841 -21 -998 -8 -124 -15 -231 -16 -237 0
-10 33 -13 135 -13 l135 0 0 48 c0 26 -8 171 -16 322 -9 169 -18 541 -21 963
l-5 687 -93 0 -93 0 -5 -772z"/>
</g>
</svg>
